<svg width="260" height="79" viewBox="0 0 260 79" fill="none" xmlns="http://www.w3.org/2000/svg">
<path d="M50.71 0.870117H60.74C61.1 0.870117 61.41 1.00012 61.67 1.25012C61.92 1.51012 62.05 1.82012 62.05 2.18012V75.9001C62.05 76.2701 61.92 76.5701 61.67 76.8301C61.41 77.0901 61.11 77.2101 60.74 77.2101H50.71C50.35 77.2101 50.04 77.0801 49.78 76.8301C49.52 76.5801 49.4 76.2701 49.4 75.9001V23.8801C49.4 23.6601 49.31 23.5201 49.13 23.4401C48.95 23.3701 48.82 23.4401 48.75 23.6601L35.12 44.6001C34.76 45.1801 34.25 45.4701 33.59 45.4701H28.57C27.92 45.4701 27.41 45.1801 27.04 44.6001L13.3 23.7701C13.23 23.5501 13.1 23.4801 12.92 23.5501C12.74 23.6201 12.65 23.7701 12.65 23.9901V75.9001C12.65 76.2701 12.52 76.5701 12.27 76.8301C12.01 77.0901 11.71 77.2101 11.34 77.2101H1.31C0.95 77.2101 0.64 77.0801 0.38 76.8301C0.12 76.5801 0 76.2701 0 75.9001V2.18012C0 1.82012 0.13 1.51012 0.38 1.25012C0.63 1.00012 0.94 0.870117 1.31 0.870117H11.34C11.99 0.870117 12.5 1.16012 12.87 1.74012L30.65 28.6801C30.79 28.8301 30.94 28.9001 31.09 28.9001C31.24 28.9001 31.34 28.8301 31.42 28.6801L49.19 1.74012C49.55 1.16012 50.06 0.870117 50.72 0.870117H50.71Z" fill="#15E55F"/>
<path d="M145.7 75.36C141.48 73.54 138.23 71 135.94 67.73C133.65 64.46 132.5 60.6 132.5 56.17V53.44C132.5 53.08 132.63 52.77 132.88 52.51C133.13 52.26 133.44 52.13 133.81 52.13H143.52C143.88 52.13 144.19 52.26 144.45 52.51C144.7 52.76 144.83 53.07 144.83 53.44V55.51C144.83 58.86 146.32 61.64 149.3 63.85C152.28 66.07 156.35 67.18 161.51 67.18C165.94 67.18 169.29 66.24 171.54 64.34C173.79 62.45 174.92 60.01 174.92 57.03C174.92 55 174.3 53.27 173.07 51.85C171.83 50.43 170.07 49.14 167.78 47.98C165.49 46.82 162.05 45.36 157.47 43.62C152.31 41.73 148.13 39.95 144.93 38.28C141.73 36.61 139.06 34.34 136.91 31.46C134.76 28.59 133.69 25.01 133.69 20.72C133.69 14.32 136.02 9.27 140.67 5.56C145.32 1.85 151.54 0 159.32 0C164.77 0 169.59 0.95 173.77 2.84C177.95 4.73 181.2 7.36 183.53 10.75C185.86 14.13 187.02 18.04 187.02 22.47V24.32C187.02 24.68 186.89 24.99 186.64 25.25C186.38 25.5 186.08 25.63 185.71 25.63H175.89C175.53 25.63 175.22 25.5 174.96 25.25C174.7 25 174.58 24.69 174.58 24.32V23.12C174.58 19.7 173.18 16.81 170.38 14.45C167.58 12.09 163.71 10.9 158.77 10.9C154.77 10.9 151.66 11.74 149.45 13.41C147.23 15.08 146.12 17.45 146.12 20.5C146.12 22.68 146.7 24.46 147.86 25.84C149.02 27.22 150.77 28.48 153.09 29.6C155.42 30.73 159.02 32.16 163.89 33.91C169.05 35.87 173.18 37.66 176.27 39.25C179.36 40.85 182.01 43.09 184.23 45.96C186.45 48.83 187.56 52.41 187.56 56.7C187.56 63.24 185.14 68.44 180.31 72.3C175.47 76.15 168.88 78.08 160.52 78.08C154.85 78.08 149.9 77.17 145.69 75.35L145.7 75.36Z" fill="#222326"/>
<path d="M246.26 76.1201L242.66 64.4501C242.51 64.1601 242.33 64.0101 242.11 64.0101H213.32C213.1 64.0101 212.92 64.1601 212.77 64.4501L209.17 76.1201C208.95 76.8501 208.48 77.2101 207.75 77.2101H196.84C196.4 77.2101 196.08 77.0801 195.86 76.8301C195.64 76.5801 195.6 76.1901 195.75 75.6901L219.43 1.96012C219.65 1.23012 220.12 0.870117 220.85 0.870117H234.48C235.21 0.870117 235.68 1.24012 235.9 1.96012L259.67 75.6801C259.74 75.8301 259.78 76.0101 259.78 76.2201C259.78 76.8801 259.38 77.2001 258.58 77.2001H247.67C246.94 77.2001 246.47 76.8401 246.25 76.1101L246.26 76.1201ZM216.6 54.0901H238.74C239.18 54.0901 239.32 53.8701 239.18 53.4301L227.95 16.8901C227.88 16.6001 227.77 16.4601 227.62 16.4601C227.47 16.4601 227.36 16.6101 227.29 16.8901L216.17 53.4301C216.1 53.8701 216.24 54.0901 216.61 54.0901H216.6Z" fill="#222326"/>
<path d="M126.071 56.2699C125.811 63.3099 120.811 68.8699 113.891 69.8999L74.0908 78.4899C73.5608 78.6099 73.0508 78.1999 73.0508 77.6499V66.6099C73.0508 66.2099 73.3308 65.8599 73.7308 65.7699L112.001 57.5199C112.381 57.4799 113.501 57.3299 113.561 55.8099C113.621 54.3099 112.501 54.0699 112.131 53.9999L111.451 53.8199L94.2508 48.2599C88.7608 46.7699 84.9108 41.6599 85.0508 36.0099C85.1808 30.6299 88.7908 26.3899 94.3208 25.0999L120.591 16.0899C121.151 15.8999 121.721 16.3099 121.721 16.8999V28.3099C121.721 28.6799 121.491 28.9999 121.141 29.1199L101.531 35.8499C100.751 36.1199 100.761 37.2199 101.541 37.4699L115.001 41.8199C121.791 43.3799 126.321 49.2599 126.071 56.2699Z" fill="#15E55F"/>
<path d="M120.851 2.06006H73.9108C73.4358 2.06006 73.0508 2.44509 73.0508 2.92006V13.7101C73.0508 14.185 73.4358 14.5701 73.9108 14.5701H120.851C121.326 14.5701 121.711 14.185 121.711 13.7101V2.92006C121.711 2.44509 121.326 2.06006 120.851 2.06006Z" fill="#15E55F"/>
</svg>
